<?xml version="1.0" encoding="utf-8"?>
<!-- Generator: Adobe Illustrator 16.0.0, SVG Export Plug-In . SVG Version: 6.00 Build 0)  -->
<!DOCTYPE svg PUBLIC "-//W3C//DTD SVG 1.1//EN" "http://www.w3.org/Graphics/SVG/1.1/DTD/svg11.dtd">
<svg version="1.1" id="Layer_1" xmlns="http://www.w3.org/2000/svg" xmlns:xlink="http://www.w3.org/1999/xlink" x="0px" y="0px"
	 width="230px" height="96px" viewBox="0 0 230 96" enable-background="new 0 0 230 96" xml:space="preserve">
<g>
	<g>
		<path fill="#FFFFFF" d="M180.26,38.79c-0.887,1.435-1.586,2.634-2.344,3.793c-2.824,4.318-3.725,8.873-2.031,13.896
			c0.541,1.604,0.859,3.361,0.863,5.047c0,3.412-2.371,5.186-5.664,4.424c-19.947-4.637-40.217-6.312-60.626-5.959
			c-10.018,0.174-20.008,1.406-30.026,1.99c-4.856,0.287-9.727,0.115-14.592,0.279c-2.27,0.08-3.208-1-3.764-3.05
			c-2.054-7.628-0.807-14.61,3.618-21.129c15.078-22.208,45.687-27.639,67.229-11.816c3.834,2.82,7.412,5.998,11.143,8.951
			c1.586,1.256,3.266,2.402,4.936,3.548c7.506,5.154,15.232,6.061,23.418,1.488C174.584,39.037,176.836,37.182,180.26,38.79z
			 M172.121,44.58c-0.143-0.219-0.281-0.443-0.424-0.665c-11.256,6.123-20.832,2.191-29.9-4.687
			c-2.168-1.65-4.189-3.518-6.395-5.124c-4.34-3.152-8.604-6.449-13.176-9.201c-5.002-3-10.546-4.926-16.461-4.617
			c-14.844,0.775-26.73,7.49-35.721,19.09c-2.063,2.655-3.116,6.369-3.803,9.767c-1.23,6.021,2.291,10.125,8.4,10.318
			c2.415,0.075,4.853-0.148,7.268-0.371c7.263-0.674,14.508-1.961,21.767-2.012c13.764-0.096,27.533,0.422,41.293,0.859
			c8.893,0.289,17.84,0.496,26.381,3.539c0.098,0.033,0.291-0.203,0.645-0.475c-1.062-2.227-1.957-4.611-3.275-6.729
			c-1.484-2.381-1.949-4.23,0.711-6.14C170.582,47.305,171.238,45.785,172.121,44.58z"/>
		<path fill="#FFFFFF" d="M104.456,1.584c-1.053,3.72-1.56,6.76,2.032,8.757c0.071,0.039-0.436,1.839-1.053,2.257
			c-1.961,1.34-5.456-0.218-6.06-3.108c-0.516-2.458-0.26-5.19,0.238-7.676c0.164-0.825,2.107-1.469,3.336-1.789
			C103.336-0.068,104.072,1.165,104.456,1.584z"/>
		<path fill="#FFFFFF" d="M121.143,3.07c-3.205,2.41-6.215,4.777-9.362,6.948c-0.674,0.464-1.851,0.222-2.922,0.317
			C110.124,5.362,115.593,2.241,121.143,3.07z"/>
	</g>
	<g>
		<path fill="#FFFFFF" d="M5.146,79.332H0.069V76.34h13.772l-0.876,2.992h-4.65v16.355H5.146V79.332z"/>
		<path fill="#FFFFFF" d="M16.234,76.34h3.169v7.982h8.329V76.34h3.205v19.348h-3.205v-8.369h-8.328v8.369h-3.169L16.234,76.34
			L16.234,76.34z"/>
		<path fill="#FFFFFF" d="M35.385,76.34h9.625l-0.873,2.992h-5.58v5.051h5.58v2.992h-5.58v5.314h6.479v2.998h-9.652V76.34H35.385z"
			/>
		<path fill="#FFFFFF" d="M52.952,76.34h3.597l3.2,11.123c0.291,1.002,0.551,2.086,0.842,3.262h0.057
			c0.291-1.176,3.248-14.385,3.248-14.385l3.187,0.021c0,0,3.028,13.188,3.292,14.332h0.084c0.26-1.172,0.472-2.201,0.789-3.346
			l3.014-11.008h3.279L71.67,95.801h-3.389c0,0-2.64-11.328-2.874-12.357h-0.079c-0.269,1.059-2.878,12.357-2.878,12.357h-3.341
			L52.952,76.34z"/>
		<path fill="#FFFFFF" d="M80.087,76.34h3.165v7.982h8.329V76.34h3.205v19.348h-3.205v-8.369h-8.329v8.369h-3.165V76.34z"/>
		<path fill="#FFFFFF" d="M104.072,76.25h2.539l7.003,19.438h-3.438l-1.688-4.844h-6.214l-1.639,4.844h-3.306L104.072,76.25z
			 M107.509,87.963l-1.216-3.846c-0.476-1.467-0.714-2.348-0.873-2.996h-0.053c-0.163,0.68-0.423,1.529-0.899,3.025l-1.27,3.814
			h4.311V87.963z"/>
		<path fill="#FFFFFF" d="M116.201,76.34h3.164v16.352h6.189v2.996h-9.354V76.34L116.201,76.34z"/>
		<path fill="#FFFFFF" d="M128.393,76.34h9.629l-0.873,2.992h-5.578v5.051h5.578v2.992h-5.578v5.314h6.479v2.998h-9.656V76.34
			L128.393,76.34z"/>
		<path fill="#FFFFFF" d="M162.592,94.424c-1.586,0.881-3.912,1.555-6.346,1.555c-5.707,0-9.094-4.076-9.094-9.625
			c0-5.875,3.777-10.189,9.568-10.189c2.041,0,3.732,0.441,5.051,0.967v3.291c-1.371-0.766-2.932-1.297-4.812-1.297
			c-4.201,0-6.422,2.881-6.422,6.99c0,4.17,2.189,6.898,5.945,6.898c1.168,0,2.221-0.234,2.908-0.588v-6.135h3.199v8.133H162.592z"
			/>
		<path fill="#FFFFFF" d="M171.693,76.25h2.539l7.01,19.438h-3.438l-1.691-4.844h-6.219l-1.631,4.844h-3.311L171.693,76.25z
			 M175.135,87.963l-1.217-3.846c-0.477-1.467-0.713-2.348-0.877-2.996h-0.049c-0.158,0.68-0.422,1.529-0.898,3.025l-1.27,3.814
			h4.311V87.963z"/>
		<path fill="#FFFFFF" d="M183.816,76.34h2.883l4.576,7.312c0.607,0.994,1.057,1.73,1.453,2.494h0.053
			c0.365-0.736,0.824-1.588,1.434-2.613l4.17-7.191h2.914v19.348h-3.201V84.764c0-0.789,0-1.789,0.055-2.553h-0.055
			c-0.242,0.559-0.871,1.645-1.189,2.174l-3.438,5.932h-1.455l-3.812-6.08c-0.363-0.584-0.844-1.262-1.189-1.996h-0.053
			c0.029,0.766,0.029,1.762,0.029,2.438v11.012h-3.174V76.34L183.816,76.34z"/>
		<path fill="#FFFFFF" d="M205.766,76.34h9.631l-0.873,2.992h-5.582v5.051h5.582v2.992h-5.582v5.314h6.48v2.998h-9.656V76.34
			L205.766,76.34z"/>
		<path fill="#FFFFFF" d="M219.693,91.607c1.033,0.793,2.357,1.406,3.943,1.406c1.455,0,2.904-0.613,2.904-2.289
			c0-3.787-7.533-3.318-7.533-9.219c0-2.848,2.039-5.344,5.656-5.344c1.799,0,3.309,0.441,4.258,0.969v3.229
			c-1.375-0.789-2.773-1.236-4.152-1.236c-1.217,0-2.375,0.531-2.375,2.088c0,3.551,7.535,3.084,7.535,9.221
			c0,3.438-2.648,5.547-6.217,5.547c-2.037,0-3.936-0.643-5.264-1.67L219.693,91.607z"/>
	</g>
</g>
</svg>
