<?xml version="1.0" encoding="utf-8"?>
<!-- Generator: Adobe Illustrator 16.0.0, SVG Export Plug-In . SVG Version: 6.00 Build 0)  -->
<!DOCTYPE svg PUBLIC "-//W3C//DTD SVG 1.1//EN" "http://www.w3.org/Graphics/SVG/1.1/DTD/svg11.dtd">
<svg version="1.1" id="Layer_2" xmlns="http://www.w3.org/2000/svg" xmlns:xlink="http://www.w3.org/1999/xlink" x="0px" y="0px"
	 width="39px" height="39px" viewBox="0 0 39 39" enable-background="new 0 0 39 39" xml:space="preserve">
<circle fill="#505150" cx="19.5" cy="19.5" r="19.5"/>
<path fill="#FFFFFF" d="M27.875,14.25c0,0.736-0.597,1.333-1.333,1.333H12.458c-0.736,0-1.333-0.597-1.333-1.333l0,0
	c0-0.736,0.597-1.333,1.333-1.333h14.083C27.278,12.917,27.875,13.514,27.875,14.25L27.875,14.25z"/>
<path fill="#FFFFFF" d="M27.875,19.417c0,0.736-0.597,1.333-1.333,1.333H12.458c-0.736,0-1.333-0.597-1.333-1.333l0,0
	c0-0.736,0.597-1.334,1.333-1.334h14.083C27.278,18.083,27.875,18.681,27.875,19.417L27.875,19.417z"/>
<path fill="#FFFFFF" d="M27.875,24.583c0,0.736-0.597,1.333-1.333,1.333H12.458c-0.736,0-1.333-0.597-1.333-1.333l0,0
	c0-0.736,0.597-1.333,1.333-1.333h14.083C27.278,23.25,27.875,23.847,27.875,24.583L27.875,24.583z"/>
</svg>
